<svg width="20" height="21" viewBox="0 0 20 21" fill="none" xmlns="http://www.w3.org/2000/svg">
<path fill-rule="evenodd" clip-rule="evenodd" d="M13.3333 3.56543H6.66667C4.36548 3.56543 2.5 5.43091 2.5 7.7321V14.3988C2.5 16.6999 4.36548 18.5654 6.66667 18.5654H13.3333C15.6345 18.5654 17.5 16.6999 17.5 14.3988V7.7321C17.5 5.43091 15.6345 3.56543 13.3333 3.56543ZM16.0417 14.3988C16.0371 15.8926 14.8272 17.1025 13.3333 17.1071H6.66667C5.17279 17.1025 3.96291 15.8926 3.95833 14.3988V7.7321C3.96291 6.23822 5.17279 5.02834 6.66667 5.02376H13.3333C14.8272 5.02834 16.0371 6.23822 16.0417 7.7321V14.3988ZM13.9583 7.94043C14.4186 7.94043 14.7917 7.56733 14.7917 7.1071C14.7917 6.64686 14.4186 6.27376 13.9583 6.27376C13.4981 6.27376 13.125 6.64686 13.125 7.1071C13.125 7.56733 13.4981 7.94043 13.9583 7.94043ZM10 7.31543C7.92893 7.31543 6.25 8.99436 6.25 11.0654C6.25 13.1365 7.92893 14.8154 10 14.8154C12.0711 14.8154 13.75 13.1365 13.75 11.0654C13.7522 10.0702 13.3578 9.11507 12.6541 8.41133C11.9503 7.70759 10.9952 7.31321 10 7.31543ZM7.70833 11.0654C7.70833 12.3311 8.73433 13.3571 10 13.3571C11.2657 13.3571 12.2917 12.3311 12.2917 11.0654C12.2917 9.79976 11.2657 8.77376 10 8.77376C8.73433 8.77376 7.70833 9.79976 7.70833 11.0654Z" fill="#8F98A8"/>
</svg>
