<svg width="15" height="15" viewBox="0 0 15 15" fill="none" xmlns="http://www.w3.org/2000/svg">
<path d="M13.1013 13.5428V9.44077C13.1013 7.42477 12.6673 5.88477 10.3153 5.88477C9.18128 5.88477 8.42528 6.50077 8.11728 7.08877H8.08928V6.06677H5.86328V13.5428H8.18728V9.83277C8.18728 8.85277 8.36928 7.91477 9.57328 7.91477C10.7633 7.91477 10.7773 9.02077 10.7773 9.88877V13.5288H13.1013V13.5428Z" fill="#8F98A8"/>
<path d="M2.08203 6.06641H4.40603V13.5424H2.08203V6.06641Z" fill="#8F98A8"/>
<path d="M3.24439 2.34277C2.50239 2.34277 1.90039 2.94477 1.90039 3.68677C1.90039 4.42877 2.50239 5.04477 3.24439 5.04477C3.98639 5.04477 4.58839 4.42877 4.58839 3.68677C4.58839 2.94477 3.98639 2.34277 3.24439 2.34277Z" fill="#8F98A8"/>
</svg>
