<svg width="14" height="15" viewBox="0 0 14 15" fill="none" xmlns="http://www.w3.org/2000/svg">
<path fill-rule="evenodd" clip-rule="evenodd" d="M7 2.61328C4.10168 2.61328 1.75 4.96496 1.75 7.86328C1.75 10.7616 4.10168 13.1133 7 13.1133C9.89263 13.1133 12.25 10.7616 12.25 7.86328C12.25 4.96496 9.89263 2.61328 7 2.61328ZM10.4677 5.03329C11.0941 5.79631 11.4699 6.77 11.4813 7.82344C11.3332 7.79497 9.85273 7.49316 8.36092 7.68105C8.32673 7.60702 8.29827 7.52734 8.26408 7.4476C8.17297 7.23124 8.07053 7.00916 7.96798 6.79846C9.61928 6.12658 10.3709 5.15856 10.4677 5.03329ZM7 3.38769C8.13884 3.38769 9.18085 3.81475 9.97237 4.51513C9.89263 4.62901 9.21503 5.53438 7.62067 6.13226C6.88613 4.78275 6.07186 3.67809 5.94662 3.50726C6.2825 3.42754 6.63559 3.38769 7 3.38769ZM5.09248 3.80905C5.21205 3.96849 6.00921 5.07884 6.75518 6.39988C4.65971 6.95795 2.80911 6.94651 2.60982 6.94651C2.90022 5.55715 3.83975 4.40124 5.09248 3.80905ZM2.51302 7.869C2.51302 7.82344 2.51302 7.77788 2.51302 7.73232C2.70661 7.73798 4.88178 7.76651 7.11958 7.09456C7.25054 7.34511 7.37013 7.60136 7.48399 7.85756C7.42706 7.87466 7.36441 7.89175 7.30747 7.90884C4.99566 8.65475 3.76573 10.6933 3.66323 10.8641C2.95146 10.0726 2.51302 9.01921 2.51302 7.869ZM7 12.3503C5.96365 12.3503 5.00705 11.9972 4.24973 11.405C4.32945 11.2399 5.2405 9.48611 7.76872 8.60353C7.78009 8.59781 7.78581 8.59781 7.79718 8.59216C8.42922 10.2264 8.68548 11.5986 8.75379 11.9915C8.21287 12.225 7.62067 12.3503 7 12.3503ZM9.4997 11.5816C9.4542 11.3082 9.21503 9.99857 8.62849 8.38711C10.035 8.16504 11.2649 8.52951 11.4187 8.58078C11.2251 9.82777 10.5076 10.904 9.4997 11.5816Z" fill="#8F98A8"/>
</svg>
