<svg width="20" height="21" viewBox="0 0 20 21" fill="none" xmlns="http://www.w3.org/2000/svg">
<path d="M17.9942 6.86587C17.8993 6.5137 17.7138 6.19254 17.4562 5.93434C17.1986 5.67614 16.8778 5.48992 16.5259 5.3942C15.2209 5.03587 10 5.03004 10 5.03004C10 5.03004 4.78003 5.0242 3.4742 5.3667C3.12247 5.46682 2.80238 5.65568 2.54467 5.91515C2.28696 6.17461 2.10027 6.49597 2.00253 6.84837C1.65836 8.15337 1.65503 10.86 1.65503 10.86C1.65503 10.86 1.6517 13.58 1.99336 14.8717C2.18503 15.5859 2.74753 16.15 3.46253 16.3425C4.78086 16.7009 9.98753 16.7067 9.98753 16.7067C9.98753 16.7067 15.2084 16.7125 16.5134 16.3709C16.8654 16.2753 17.1865 16.0895 17.4447 15.8319C17.703 15.5742 17.8895 15.2536 17.9859 14.9017C18.3309 13.5975 18.3334 10.8917 18.3334 10.8917C18.3334 10.8917 18.35 8.17087 17.9942 6.86587ZM8.33003 13.3675L8.3342 8.36754L12.6734 10.8717L8.33003 13.3675Z" fill="#8F98A8"/>
</svg>
