<svg width="62" height="62" viewBox="0 0 62 62" fill="none" xmlns="http://www.w3.org/2000/svg">
<circle cx="31" cy="31" r="31" fill="#3D4A5F"/>
<g clip-path="url(#clip0_251_3470)">
<path d="M39.367 42.6966C39.5996 42.6966 39.8291 42.7851 40.0037 42.9537C41.1199 44.0316 42.7481 44.3904 44.1954 43.9413C43.2639 42.0007 43.1349 39.7775 43.8567 37.719C44.7525 35.1578 44.977 32.5908 43.9575 30.0162C43.0618 27.7545 41.3333 25.8755 39.1457 24.804C39.2803 25.5214 39.3482 26.2525 39.3482 26.9912C39.3482 30.127 38.1424 33.0763 35.953 35.2959C33.7634 37.5158 30.8282 38.764 27.6882 38.8106C27.1049 38.8198 26.5241 38.7855 25.95 38.7098C27.6756 41.7346 30.9302 43.7047 34.5066 43.7577C36.0711 43.7819 37.5733 43.4541 38.9722 42.7861C39.0982 42.7258 39.2331 42.6966 39.367 42.6966Z" fill="white"/>
<path d="M27.714 17.002C22.1438 16.8914 17.5135 21.3976 17.5 26.9666C17.4967 28.3272 17.7623 29.6464 18.2895 30.8877C18.2972 30.9057 18.3043 30.924 18.3107 30.9425C19.0326 33.001 18.9036 35.2242 17.972 37.1648C19.4195 37.6138 21.0475 37.2551 22.1637 36.1772C22.4387 35.9116 22.8502 35.8447 23.1952 36.0096C24.594 36.6777 26.0963 37.0065 27.6608 36.9813C33.1874 36.8993 37.5165 32.5111 37.5164 26.9912C37.5165 21.5917 33.1191 17.1106 27.714 17.002ZM22.1698 28.4833C21.3695 28.4833 20.7207 27.8356 20.7207 27.0367C20.7207 26.2378 21.3695 25.5901 22.1698 25.5901C22.97 25.5901 23.6188 26.2378 23.6188 27.0367C23.6187 27.8356 22.97 28.4833 22.1698 28.4833ZM27.5083 28.4833C26.708 28.4833 26.0592 27.8356 26.0592 27.0367C26.0592 26.2378 26.708 25.5901 27.5083 25.5901C28.3086 25.5901 28.9573 26.2378 28.9573 27.0367C28.9573 27.8356 28.3086 28.4833 27.5083 28.4833ZM32.8469 28.4833C32.0466 28.4833 31.3978 27.8356 31.3978 27.0367C31.3978 26.2378 32.0466 25.5901 32.8469 25.5901C33.6471 25.5901 34.2959 26.2378 34.2959 27.0367C34.2959 27.8356 33.6471 28.4833 32.8469 28.4833Z" fill="white"/>
</g>
<defs>
<clipPath id="clip0_251_3470">
<rect width="27.1304" height="27.1304" fill="white" transform="translate(17.5 17)"/>
</clipPath>
</defs>
</svg>
