<svg width="62" height="62" viewBox="0 0 62 62" fill="none" xmlns="http://www.w3.org/2000/svg">
<circle cx="31" cy="31" r="31" fill="#3D4A5F"/>
<g clip-path="url(#clip0_251_3452)">
<path d="M25.1479 30.0665C25.0066 30.0448 24.8641 30.0326 24.7212 30.03C24.4002 30.0261 24.2636 30.1439 24.2646 30.1438C24.1699 30.2106 24.124 30.3102 24.124 30.4478C24.124 30.5355 24.14 30.604 24.1712 30.6521C24.1916 30.6841 24.2002 30.6962 24.2619 30.7454L24.2628 30.746C24.2618 30.7457 24.4034 30.857 24.7234 30.8378C24.9487 30.8242 25.1481 30.7813 25.1481 30.7813H25.1479V30.0665Z" fill="white"/>
<path d="M34.5569 29.1314C34.3496 29.1314 34.2028 29.2022 34.1063 29.3498C34.0092 29.4983 33.9597 29.7097 33.9597 29.9788C33.9597 30.248 34.0089 30.4613 34.1063 30.6108C34.203 30.759 34.3505 30.8312 34.5569 30.8312C34.7633 30.8312 34.9114 30.7584 35.0095 30.6098C35.1077 30.4594 35.158 30.2472 35.158 29.9783C35.158 29.7094 35.1083 29.4981 35.0095 29.3498C34.9118 29.2029 34.7643 29.1314 34.5569 29.1314Z" fill="white"/>
<path d="M28.2388 29.1195C28.0324 29.1195 27.8857 29.2002 27.7892 29.3478C27.7249 29.4444 27.6838 29.569 27.6616 29.7184L28.7831 29.7187C28.7725 29.574 28.7441 29.445 28.6794 29.3478C28.5817 29.2006 28.4451 29.1195 28.2388 29.1195Z" fill="white"/>
<path d="M38.7785 23.64C37.9642 23.6395 37.1591 23.8111 36.4157 24.1434C35.5783 22.658 34.0231 21.6611 32.2286 21.6611C30.8828 21.6611 29.6646 22.2253 28.7892 23.1365L28.7902 23.1417C27.8332 21.8806 26.3079 21.0681 24.6031 21.0681C21.6921 21.0681 19.3294 23.4209 19.3294 26.3319C19.3287 27.0521 19.4763 27.7648 19.7631 28.4255C18.4112 29.223 17.5 30.6984 17.5 32.3932C17.5 34.9155 19.5238 36.9691 22.0261 36.9691C22.339 36.9693 22.651 36.9368 22.9572 36.8722C23.645 38.7365 25.4296 40.0624 27.5331 40.0624C29.5469 40.0624 31.2765 38.8361 32.0192 37.0915C32.603 37.3762 33.244 37.5234 33.8935 37.5222C35.4885 37.5222 36.8893 36.635 37.622 35.3289C37.9988 35.4039 38.3837 35.4436 38.7784 35.4436C42.0085 35.4436 44.6304 32.8017 44.6304 29.5418C44.6304 26.2818 42.0085 23.64 38.7785 23.64ZM23.3316 30.4846C23.3316 30.9611 22.9857 31.2572 22.4294 31.2572C22.1563 31.2572 21.8951 31.2143 21.6179 31.0678C21.5661 31.0378 21.5144 31.0111 21.4634 30.9742C21.4579 30.9663 21.4348 30.957 21.4519 30.9126L21.4515 30.9118L21.5611 30.6067C21.5785 30.5545 21.6184 30.5719 21.6343 30.5815C21.6645 30.6 21.6869 30.6164 21.726 30.6393C22.0501 30.844 22.349 30.8457 22.4428 30.8457C22.6841 30.8457 22.8346 30.717 22.8346 30.5446V30.5352C22.8346 30.3478 22.6033 30.2764 22.3362 30.1942L22.2771 30.1759C21.9103 30.0711 21.5175 29.9197 21.5175 29.455V29.4456C21.5175 29.005 21.8734 28.6969 22.3828 28.6969L22.4383 28.6967C22.7374 28.6967 23.0265 28.7834 23.2359 28.911C23.2549 28.9224 23.2734 28.9444 23.2629 28.9736C23.2529 29.0015 23.1599 29.2505 23.1492 29.2787C23.1296 29.3308 23.0756 29.2959 23.0756 29.2959C22.8931 29.1952 22.608 29.1155 22.3687 29.1155C22.1534 29.1155 22.0138 29.2302 22.0138 29.3857V29.395C22.0138 29.5764 22.2521 29.6544 22.5282 29.7439L22.576 29.7594C22.9409 29.874 23.3317 30.0345 23.3317 30.4751L23.3316 30.4846ZM25.6137 31.0977C25.6137 31.0977 25.5555 31.1136 25.5031 31.1256C25.3717 31.154 25.2398 31.1797 25.1073 31.2025C24.9518 31.2288 24.7913 31.2423 24.6297 31.2423C24.4762 31.2423 24.3367 31.2281 24.213 31.1998C24.0884 31.1719 23.9805 31.1249 23.893 31.0613C23.8051 30.9976 23.7345 30.9129 23.6876 30.8151C23.6398 30.7164 23.6156 30.5957 23.6156 30.4562C23.6156 30.3186 23.644 30.197 23.6997 30.0933C23.7549 29.9906 23.833 29.9018 23.928 29.8341C24.0227 29.7659 24.1334 29.7146 24.256 29.6815C24.3776 29.6487 24.5082 29.6319 24.6428 29.6319C24.7415 29.6319 24.8243 29.6341 24.8881 29.6389L24.8895 29.6425C24.8895 29.6425 25.0142 29.6538 25.1488 29.6733V29.6068C25.1488 29.3975 25.105 29.2979 25.0192 29.232C24.9314 29.1647 24.7998 29.1303 24.6304 29.1303C24.6304 29.1303 24.2476 29.1253 23.9455 29.2898C23.9316 29.2981 23.9197 29.3028 23.9197 29.3028C23.9197 29.3028 23.8819 29.3161 23.868 29.2773L23.7564 28.9782C23.7394 28.9349 23.7705 28.9157 23.7705 28.9157C23.9121 28.8048 24.255 28.7382 24.255 28.7382C24.3687 28.7153 24.5591 28.6994 24.6767 28.6994C24.9907 28.6994 25.233 28.7722 25.3985 28.9168C25.5645 29.0613 25.6487 29.2956 25.6487 29.6107L25.6496 31.0463C25.6496 31.0463 25.6526 31.0878 25.6137 31.0977ZM26.6684 31.1483C26.6684 31.1746 26.6497 31.1961 26.6234 31.1961H26.2064C26.1799 31.1961 26.1612 31.1746 26.1612 31.1483V27.7919C26.1612 27.7656 26.18 27.7444 26.2064 27.7444H26.6234C26.6497 27.7444 26.6684 27.7656 26.6684 27.7919V31.1483ZM29.2748 30.0669C29.2705 30.1074 29.229 30.1077 29.229 30.1077L27.6539 30.1065C27.6628 30.3458 27.7206 30.5143 27.8363 30.6299C27.95 30.7429 28.1314 30.815 28.3747 30.8154C28.7485 30.8164 28.908 30.7408 29.0207 30.6988C29.0207 30.6988 29.0641 30.6832 29.08 30.7262L29.1827 31.0143C29.2033 31.0629 29.1868 31.0797 29.1695 31.0895C29.0718 31.1443 28.8325 31.2455 28.3779 31.247C28.1566 31.2477 27.9652 31.2159 27.8067 31.1546C27.6472 31.0928 27.5146 31.0051 27.4109 30.8924C27.3082 30.7808 27.2313 30.6462 27.1836 30.4927C27.1361 30.3401 27.1122 30.1716 27.1122 29.9902C27.1122 29.8128 27.1353 29.6433 27.181 29.4887C27.2268 29.3323 27.299 29.1957 27.3943 29.08C27.49 28.9644 27.6117 28.8718 27.7563 28.8039C27.9008 28.7364 28.0793 28.7032 28.2757 28.7032C28.4305 28.7029 28.5838 28.734 28.7263 28.7946C28.825 28.8365 28.9237 28.9133 29.0253 29.0219C29.0891 29.0907 29.1872 29.2413 29.2267 29.3898L29.2278 29.3901C29.3288 29.7438 29.2765 30.0501 29.2748 30.0669ZM30.5741 31.2564C30.301 31.2564 30.0398 31.2135 29.7626 31.067C29.7108 31.037 29.6588 31.0103 29.6081 30.9733C29.6024 30.9655 29.5792 30.9562 29.5963 30.9118L29.5951 30.9109L29.7048 30.6059C29.7208 30.5561 29.7678 30.5743 29.7778 30.5807C29.8076 30.5999 29.8305 30.6156 29.8697 30.6385C30.1927 30.8432 30.4925 30.8448 30.5865 30.8448C30.8277 30.8448 30.9783 30.7162 30.9783 30.5438V30.5344C30.9783 30.347 30.748 30.2756 30.4798 30.1934L30.4209 30.1751C30.054 30.0704 29.6612 29.9188 29.6612 29.4543V29.4448C29.6612 29.0041 30.0171 28.696 30.5265 28.696L30.5822 28.6959C30.8812 28.6959 31.1703 28.7826 31.3797 28.9102C31.3986 28.9216 31.4173 28.9436 31.4066 28.9728C31.3977 29.0007 31.3045 29.2497 31.294 29.2779C31.2742 29.33 31.2202 29.2951 31.2202 29.2951C31.0368 29.1943 30.7526 29.1147 30.5134 29.1147C30.298 29.1147 30.1585 29.2293 30.1585 29.3849V29.3942C30.1585 29.5756 30.3967 29.6536 30.6729 29.7431L30.7206 29.7586C31.0865 29.8732 31.4763 30.0337 31.4763 30.4743V30.4837C31.4764 30.9603 31.1304 31.2564 30.5741 31.2564ZM33.3267 29.1302C33.3177 29.1775 33.274 29.1759 33.274 29.1759H32.756L32.4017 31.1806C32.3645 31.3879 32.3181 31.5658 32.2635 31.709C32.2084 31.8536 32.1508 31.9596 32.0591 32.0607C31.9744 32.1546 31.8786 32.2238 31.7685 32.2636C31.6592 32.3031 31.5273 32.3235 31.3825 32.3235C31.3134 32.3235 31.2397 32.3222 31.1521 32.3015C31.0891 32.2867 31.0547 32.2761 31.0085 32.2595C30.9888 32.2524 30.9731 32.2279 30.9843 32.1968C30.9952 32.1653 31.0878 31.9106 31.1009 31.8772C31.1169 31.8363 31.1577 31.8518 31.1577 31.8518C31.1857 31.8636 31.2052 31.872 31.2425 31.8794C31.2799 31.8869 31.3305 31.8933 31.3686 31.8933C31.437 31.8933 31.4994 31.8849 31.5537 31.8666C31.6194 31.8446 31.6574 31.8068 31.6976 31.7555C31.7391 31.7024 31.7728 31.6293 31.8073 31.5318C31.8423 31.4331 31.8739 31.3027 31.9015 31.1442L32.2542 29.1759H31.9066C31.8648 29.1761 31.8513 29.1566 31.8554 29.1252L31.914 28.7982C31.9232 28.7507 31.9667 28.7525 31.9667 28.7525H32.3237L32.3429 28.6459C32.3963 28.3302 32.5027 28.0903 32.659 27.9327C32.8164 27.774 33.0406 27.6936 33.325 27.6936C33.3966 27.6928 33.4682 27.6984 33.5388 27.7102C33.5913 27.7193 33.6432 27.7316 33.6942 27.747C33.7054 27.7514 33.7355 27.7663 33.7232 27.8018L33.6029 28.132C33.5929 28.1569 33.586 28.172 33.5347 28.1563C33.522 28.1526 33.503 28.1471 33.4543 28.1367C33.4189 28.1293 33.3724 28.1236 33.3251 28.1236C33.2679 28.1228 33.211 28.1311 33.1563 28.148C33.1065 28.1643 33.0613 28.1924 33.0246 28.2299C32.9854 28.2693 32.939 28.3266 32.9144 28.3977C32.8567 28.5642 32.8338 28.741 32.8313 28.7524H33.3341C33.3762 28.7522 33.3895 28.7717 33.3855 28.8031L33.3267 29.1302ZM35.6216 30.4783C35.5758 30.6328 35.5049 30.7684 35.4102 30.882C35.3155 30.9957 35.1949 31.0866 35.0533 31.1512C34.9118 31.2158 34.7443 31.2487 34.5559 31.2487C34.3674 31.2487 34.1999 31.2158 34.0574 31.1512C33.9158 31.0864 33.7953 30.9957 33.7005 30.882C33.6058 30.7683 33.5347 30.6328 33.4892 30.4783C33.4438 30.3248 33.4207 30.1573 33.4207 29.9788C33.4207 29.8004 33.4438 29.6329 33.4892 29.4793C33.535 29.3248 33.606 29.1892 33.7005 29.0756C33.7952 28.9619 33.9159 28.8706 34.0574 28.8044C34.1999 28.7383 34.3664 28.7047 34.5559 28.7047C34.7453 28.7047 34.9128 28.7381 35.0543 28.8044C35.1969 28.8702 35.3164 28.962 35.4112 29.0756C35.5059 29.1893 35.5768 29.3248 35.6226 29.4793H35.6216C35.6668 29.6328 35.6899 29.8013 35.6899 29.9788C35.6899 30.1573 35.6668 30.3248 35.6216 30.4783ZM37.5491 28.8284L37.5501 28.8219C37.5351 28.8648 37.4585 29.08 37.4314 29.1519C37.4212 29.1793 37.4043 29.1978 37.374 29.1944C37.374 29.1944 37.2838 29.1733 37.2015 29.1733C37.13 29.1733 37.0589 29.1833 36.9901 29.203C36.9169 29.2258 36.8503 29.2658 36.7957 29.3197C36.7386 29.3755 36.6922 29.4533 36.6582 29.551C36.6236 29.6496 36.6062 29.8062 36.6062 29.9637V31.14C36.6062 31.1664 36.5849 31.1877 36.5586 31.1877H36.1459C36.1195 31.1877 36.0982 31.1664 36.0981 31.14V28.7972C36.0981 28.7709 36.117 28.7497 36.1432 28.7497H36.5459C36.5724 28.7497 36.5911 28.7709 36.5911 28.7972L36.5913 28.9886C36.6511 28.9069 36.759 28.8362 36.8565 28.7923C36.9552 28.748 37.0648 28.7147 37.2622 28.7271C37.3649 28.7334 37.4986 28.7616 37.5254 28.7719C37.5259 28.772 37.5263 28.7722 37.5267 28.7724C37.5484 28.7817 37.5584 28.8067 37.5491 28.8284ZM39.5359 31.1257C39.3605 31.1952 39.1162 31.2433 38.8779 31.2433C38.4752 31.2433 38.1661 31.1277 37.9607 30.8984C37.7554 30.6701 37.6517 30.3581 37.6517 29.9732C37.6517 29.7948 37.6771 29.6263 37.7275 29.4728C37.7783 29.3183 37.8541 29.1827 37.9538 29.0691C38.0535 28.9554 38.1791 28.864 38.3276 28.7979C38.4762 28.7317 38.6497 28.6983 38.845 28.6983C38.9766 28.6983 39.0933 28.7063 39.194 28.7216C39.3016 28.7379 39.4438 28.7764 39.504 28.8C39.5151 28.8043 39.5454 28.8192 39.533 28.8546C39.4893 28.9782 39.4592 29.059 39.4184 29.1716C39.4009 29.2196 39.3645 29.2037 39.3645 29.2037C39.211 29.1557 39.0645 29.1334 38.8731 29.1334C38.6438 29.1334 38.4703 29.2112 38.3576 29.3607C38.2435 29.5122 38.1799 29.7097 38.1792 29.9729C38.1782 30.262 38.25 30.4752 38.3786 30.6079C38.5062 30.7403 38.6856 30.8073 38.9099 30.8073C39.0007 30.8073 39.0868 30.8012 39.1641 30.789C39.2409 30.777 39.313 30.7531 39.3805 30.7273C39.3805 30.7273 39.4246 30.7103 39.4398 30.7554H39.4401L39.5548 31.0704C39.5694 31.1095 39.5359 31.1257 39.5359 31.1257ZM41.8669 30.0669C41.8627 30.1074 41.8212 30.1077 41.8212 30.1077L40.246 30.1065C40.255 30.3458 40.3128 30.5143 40.4284 30.6299C40.5421 30.7429 40.7225 30.815 40.9668 30.8154C41.3406 30.8164 41.5001 30.7408 41.6128 30.6988C41.6128 30.6988 41.6562 30.6832 41.672 30.7262L41.7747 31.0143C41.7952 31.0629 41.7788 31.0797 41.7613 31.0895C41.6636 31.1443 41.4244 31.2455 40.9698 31.247C40.7495 31.2477 40.5571 31.2159 40.3986 31.1546C40.2391 31.0928 40.1064 31.0051 40.0028 30.8924C39.8991 30.7808 39.8223 30.6462 39.7745 30.4927C39.7272 30.3401 39.7032 30.1716 39.7032 29.9902C39.7032 29.8128 39.7264 29.6433 39.7722 29.4887C39.8181 29.3323 39.89 29.1957 39.9856 29.08C40.0813 28.9644 40.2029 28.8718 40.3474 28.8039C40.492 28.7364 40.6705 28.7032 40.8668 28.7032C41.0217 28.7029 41.175 28.734 41.3174 28.7946C41.4162 28.8365 41.5148 28.9133 41.6165 29.0219C41.6803 29.0907 41.7783 29.2413 41.8179 29.3898L41.82 29.3901C41.9209 29.7438 41.8686 30.0501 41.8669 30.0669Z" fill="white"/>
<path d="M40.8298 29.1195C40.6235 29.1195 40.4766 29.2002 40.3802 29.3478C40.3158 29.4444 40.2749 29.569 40.2527 29.7184L41.3742 29.7187C41.3637 29.574 41.3353 29.445 41.2705 29.3478C41.1728 29.2006 41.0362 29.1195 40.8298 29.1195Z" fill="white"/>
</g>
<defs>
<clipPath id="clip0_251_3452">
<rect width="27.1304" height="27.1304" fill="white" transform="translate(17.5 17)"/>
</clipPath>
</defs>
</svg>
