<svg width="62" height="62" viewBox="0 0 62 62" fill="none" xmlns="http://www.w3.org/2000/svg">
<circle cx="31" cy="31" r="31" fill="#3D4A5F"/>
<g clip-path="url(#clip0_251_3458)">
<path d="M21.6126 27.1739C20.914 27.1739 20.3714 26.5431 20.4946 25.8558C20.9004 23.5938 22.0274 21.4912 23.722 19.9029C25.9094 17.8512 28.766 16.8282 31.7774 17.0237C37.4534 17.39 41.8869 22.3311 41.8033 28.2343C41.7581 31.4198 39.1027 33.9576 35.916 33.9576H32.6015C32.1946 34.3488 31.6452 34.5918 31.037 34.5918C29.7879 34.5918 28.7761 33.5801 28.7761 32.3309C28.7761 31.0818 29.7879 30.0701 31.037 30.0701C32.0634 30.0701 32.9203 30.7585 33.1961 31.6968H35.916C37.8784 31.6968 39.5209 30.1334 39.5424 28.1721C39.5944 23.4853 36.1002 19.5706 31.6316 19.2812C29.2588 19.1343 26.9957 19.9346 25.2673 21.5545C23.9006 22.8353 23.02 24.4756 22.7114 26.2775C22.6209 26.8043 22.1461 27.1762 21.6126 27.1762V27.1739ZM31.0653 36.2174C26.8883 36.2174 23.2743 38.8083 22.0727 42.6631C21.9653 43.0068 22.0274 43.3809 22.2411 43.6703C22.4548 43.9597 22.7928 44.1304 23.1522 44.1304H38.9783C39.3378 44.1304 39.6758 43.9597 39.8894 43.6703C40.1031 43.3809 40.1653 43.0068 40.0579 42.6631C38.8562 38.8083 35.2422 36.2174 31.0653 36.2174ZM34.382 29.4348H37.043C37.1956 28.8956 37.2827 28.3281 37.2827 27.7391C37.2827 24.3049 34.4995 21.5217 31.0653 21.5217C27.631 21.5217 24.8479 24.3049 24.8479 27.7391C24.8479 29.4246 25.5216 30.9507 26.6102 32.0709C26.747 29.7355 28.6665 27.8782 31.037 27.8782C32.3834 27.8782 33.5703 28.4897 34.3831 29.4348H34.382Z" fill="white"/>
</g>
<defs>
<clipPath id="clip0_251_3458">
<rect width="27.1304" height="27.1304" fill="white" transform="translate(17.5 17)"/>
</clipPath>
</defs>
</svg>
