<svg width="62" height="62" viewBox="0 0 62 62" fill="none" xmlns="http://www.w3.org/2000/svg">
<circle cx="31" cy="31" r="31" fill="#3D4A5F"/>
<g clip-path="url(#clip0_251_3464)">
<path d="M38.9783 18.1304H23.1522C20.031 18.1304 17.5 20.6615 17.5 23.7826V32.8261C17.5 35.9472 20.031 38.4783 23.1522 38.4783H29.9348V40.7391H25.413C24.7879 40.7391 24.2826 41.2456 24.2826 41.8696C24.2826 42.4936 24.7879 43 25.413 43H36.7174C37.3425 43 37.8478 42.4936 37.8478 41.8696C37.8478 41.2456 37.3425 40.7391 36.7174 40.7391H32.1957V38.4783H38.9783C42.0994 38.4783 44.6304 35.9472 44.6304 32.8261V23.7826C44.6304 20.6615 42.0994 18.1304 38.9783 18.1304ZM25.1892 34.3623C23.0312 33.8548 21.3412 32.0359 20.9738 29.8497C20.4437 26.6946 22.5304 23.916 25.413 23.3304V28.4004C25.413 28.9996 25.6516 29.575 26.0755 29.9989L29.6578 33.5812C28.4223 34.3997 26.851 34.7523 25.1892 34.3623ZM31.2563 31.9828L28.0063 28.7328C27.7937 28.5203 27.675 28.2331 27.675 27.9336V23.3316C30.2547 23.855 32.1968 26.135 32.1968 28.8696C32.1968 30.0215 31.8486 31.0897 31.2563 31.9828ZM40.1098 33.9565H36.7185C36.0945 33.9565 35.5881 33.4501 35.5881 32.8261C35.5881 32.2021 36.0945 31.6957 36.7185 31.6957H40.1098C40.7338 31.6957 41.2403 32.2021 41.2403 32.8261C41.2403 33.4501 40.7338 33.9565 40.1098 33.9565ZM40.1098 29.4348H36.7185C36.0945 29.4348 35.5881 28.9283 35.5881 28.3043C35.5881 27.6803 36.0945 27.1739 36.7185 27.1739H40.1098C40.7338 27.1739 41.2403 27.6803 41.2403 28.3043C41.2403 28.9283 40.7338 29.4348 40.1098 29.4348ZM40.1098 24.913H36.7185C36.0945 24.913 35.5881 24.4066 35.5881 23.7826C35.5881 23.1586 36.0945 22.6522 36.7185 22.6522H40.1098C40.7338 22.6522 41.2403 23.1586 41.2403 23.7826C41.2403 24.4066 40.7338 24.913 40.1098 24.913Z" fill="white"/>
</g>
<defs>
<clipPath id="clip0_251_3464">
<rect width="27.1304" height="27.1304" fill="white" transform="translate(17.5 17)"/>
</clipPath>
</defs>
</svg>
