<svg width="62" height="62" viewBox="0 0 62 62" fill="none" xmlns="http://www.w3.org/2000/svg">
<circle cx="31" cy="31" r="31" fill="#3D4A5F"/>
<g clip-path="url(#clip0_251_4459)">
<path fill-rule="evenodd" clip-rule="evenodd" d="M17.4351 19.5687C17.4351 18.3456 18.4266 17.354 19.6498 17.354H42.3504C43.5735 17.354 44.5651 18.3456 44.5651 19.5687V38.0245C44.5651 39.2476 43.5735 40.2392 42.3504 40.2392H38.161C38.1629 40.1778 38.1638 40.1163 38.1638 40.0545C38.1638 36.487 35.0455 33.595 31.1989 33.595C27.3523 33.595 24.234 36.487 24.234 40.0545C24.234 40.1163 24.2349 40.1778 24.2367 40.2392H19.6498C18.4266 40.2392 17.4351 39.2476 17.4351 38.0245V19.5687ZM22.1863 19.9378C21.7786 19.9378 21.4481 20.2683 21.4481 20.676V24.3672C21.4481 24.7749 21.7786 25.1054 22.1863 25.1054H39.8136C40.2213 25.1054 40.5518 24.7749 40.5518 24.3672V20.676C40.5518 20.2683 40.2213 19.9378 39.8136 19.9378H22.1863ZM22.1863 26.951C21.7786 26.951 21.4481 27.2815 21.4481 27.6892V30.6422C21.4481 31.0499 21.7786 31.3804 22.1863 31.3804H25.5083C25.9161 31.3804 26.2466 31.0499 26.2466 30.6422V27.6892C26.2466 27.2815 25.9161 26.951 25.5083 26.951H22.1863ZM28.0928 27.6891C28.0928 27.2814 28.4233 26.9509 28.8311 26.9509H32.1531C32.5608 26.9509 32.8913 27.2814 32.8913 27.6891V30.642C32.8913 31.0498 32.5608 31.3803 32.1531 31.3803H28.8311C28.4233 31.3803 28.0928 31.0498 28.0928 30.642V27.6891ZM35.4748 26.9509C35.0671 26.9509 34.7366 27.2815 34.7366 27.6892V30.6421C34.7366 31.0498 35.0671 31.3803 35.4748 31.3803H38.7969C39.2046 31.3803 39.5351 31.0498 39.5351 30.6421V27.6892C39.5351 27.2815 39.2046 26.9509 38.7969 26.9509H35.4748Z" fill="white"/>
<g clip-path="url(#clip1_251_4459)">
<path d="M27.8299 42.6358L28.9114 42.0578C29.3752 42.5213 29.9792 42.8576 30.666 43.0033V44.1557H32.199V43.0033C32.8858 42.8576 33.4906 42.5213 33.9535 42.0578L35.0351 42.6358L35.8001 41.4038L34.7147 40.8237C34.8136 40.5266 34.8818 40.2173 34.8818 39.8903C34.8818 39.5633 34.8136 39.2541 34.7147 38.9569L35.8001 38.3769L35.0351 37.1449L33.9535 37.7228C33.4898 37.2593 32.8858 36.9231 32.199 36.7774V35.625H30.666V36.7774C29.9792 36.9231 29.3744 37.2593 28.9114 37.7228L27.8299 37.1449L27.0649 38.3769L28.1503 38.9569C28.0514 39.2541 27.9832 39.5633 27.9832 39.8903C27.9832 40.2173 28.0514 40.5266 28.1503 40.8237L27.0649 41.4038L27.8299 42.6358ZM31.4325 38.824C32.0664 38.824 32.5822 39.3024 32.5822 39.8903C32.5822 40.4782 32.0664 40.9567 31.4325 40.9567C30.7986 40.9567 30.2827 40.4782 30.2827 39.8903C30.2827 39.3024 30.7986 38.824 31.4325 38.824ZM32.199 50.5537V51.2646H35.265V52.6863H27.5999V51.2646H30.666V50.5537H22.2344V41.3121C22.2344 40.1363 23.2661 39.1794 24.5339 39.1794H25.3533C25.3219 39.4126 25.3004 39.6493 25.3004 39.8903C25.3004 43.031 28.046 45.5774 31.4325 45.5774C34.8189 45.5774 37.5646 43.031 37.5646 39.8903C37.5646 39.6493 37.5431 39.4126 37.5117 39.1794H38.3311C39.5989 39.1794 40.6306 40.1363 40.6306 41.3121V50.5537H32.199Z" fill="white"/>
</g>
</g>
<defs>
<clipPath id="clip0_251_4459">
<rect width="27.1304" height="27.1304" fill="white" transform="translate(17.5 17)"/>
</clipPath>
<clipPath id="clip1_251_4459">
<rect x="26.7988" y="35.625" width="9.19811" height="8.85877" rx="4.42938" fill="white"/>
</clipPath>
</defs>
</svg>
