<svg width="62" height="62" viewBox="0 0 62 62" fill="none" xmlns="http://www.w3.org/2000/svg">
<circle cx="31" cy="31" r="31" fill="#3D4A5F"/>
<g clip-path="url(#clip0_251_4481)">
<path d="M35.0865 17.3391C35.8844 17.6127 36.6104 18.0624 37.2106 18.6549L39.0826 20.5292C39.6758 21.1286 40.126 21.8543 40.3995 22.6521H35.0865V17.3391ZM40.7386 24.9129V38.4779C40.7368 39.9764 40.1408 41.413 39.0812 42.4726C38.0216 43.5321 36.585 44.1282 35.0865 44.13H26.0432C24.5447 44.1282 23.1081 43.5321 22.0486 42.4726C20.989 41.413 20.3929 39.9764 20.3911 38.4779V22.6521C20.3929 21.1536 20.989 19.717 22.0486 18.6574C23.1081 17.5979 24.5447 17.0018 26.0432 17H32.8257V22.6521C32.8257 23.2517 33.0639 23.8267 33.4879 24.2507C33.9119 24.6747 34.4869 24.9129 35.0865 24.9129H40.7386ZM35.9999 36.6839C35.9127 36.5633 35.8025 36.461 35.6757 36.3831C35.5488 36.3051 35.4078 36.2529 35.2608 36.2296C35.1137 36.2063 34.9635 36.2123 34.8188 36.2472C34.674 36.2821 34.5376 36.3452 34.4173 36.433C33.6578 36.9617 32.7706 37.2775 31.8479 37.3475C31.4863 37.3376 31.1401 37.1994 30.8712 36.9575C30.2813 36.4894 29.5533 36.2291 28.8003 36.2171C27.5463 36.335 26.3519 36.8079 25.357 37.5804C25.2336 37.6684 25.1291 37.7803 25.0498 37.9096C24.9705 38.0388 24.9179 38.1827 24.8954 38.3326C24.8728 38.4825 24.8806 38.6355 24.9184 38.7823C24.9562 38.9292 25.0231 39.0669 25.1152 39.1874C25.2072 39.3078 25.3226 39.4085 25.4544 39.4835C25.5862 39.5584 25.7318 39.6061 25.8824 39.6237C26.033 39.6412 26.1856 39.6283 26.3311 39.5856C26.4766 39.543 26.612 39.4715 26.7294 39.3755C27.3314 38.9039 28.0445 38.5949 28.8003 38.4779C29.0784 38.4779 29.2197 38.5661 29.5916 38.817C30.2357 39.3258 31.0316 39.6044 31.8524 39.6083C33.2573 39.5441 34.6138 39.0759 35.7591 38.2597C35.9993 38.0822 36.1594 37.8168 36.2046 37.5215C36.2497 37.2262 36.1761 36.9251 35.9999 36.6839ZM36.2169 32.8258C36.2169 32.526 36.0978 32.2385 35.8859 32.0265C35.6739 31.8145 35.3863 31.6954 35.0865 31.6954H26.0432C25.7434 31.6954 25.4559 31.8145 25.2439 32.0265C25.0319 32.2385 24.9128 32.526 24.9128 32.8258C24.9128 33.1256 25.0319 33.4132 25.2439 33.6252C25.4559 33.8372 25.7434 33.9562 26.0432 33.9562H35.0865C35.3863 33.9562 35.6739 33.8372 35.8859 33.6252C36.0978 33.4132 36.2169 33.1256 36.2169 32.8258ZM36.2169 28.3042C36.2169 28.0044 36.0978 27.7168 35.8859 27.5048C35.6739 27.2928 35.3863 27.1737 35.0865 27.1737H26.0432C25.7434 27.1737 25.4559 27.2928 25.2439 27.5048C25.0319 27.7168 24.9128 28.0044 24.9128 28.3042C24.9128 28.604 25.0319 28.8915 25.2439 29.1035C25.4559 29.3155 25.7434 29.4346 26.0432 29.4346H35.0865C35.3863 29.4346 35.6739 29.3155 35.8859 29.1035C36.0978 28.8915 36.2169 28.604 36.2169 28.3042Z" fill="white"/>
</g>
<defs>
<clipPath id="clip0_251_4481">
<rect width="27.13" height="27.13" fill="white" transform="translate(17 17)"/>
</clipPath>
</defs>
</svg>
