<svg width="62" height="62" viewBox="0 0 62 62" fill="none" xmlns="http://www.w3.org/2000/svg">
<rect width="62" height="62" rx="31" fill="#3D4A5F"/>
<path d="M34.4185 31.0002C34.4185 31.6706 34.2197 32.3259 33.8473 32.8833C33.4748 33.4407 32.9454 33.8752 32.3261 34.1317C31.7067 34.3883 31.0252 34.4554 30.3677 34.3246C29.7102 34.1938 29.1063 33.871 28.6322 33.397C28.1582 32.9229 27.8354 32.319 27.7046 31.6615C27.5738 31.004 27.6409 30.3225 27.8975 29.7031C28.154 29.0837 28.5884 28.5544 29.1459 28.1819C29.7033 27.8095 30.3586 27.6107 31.029 27.6107C31.9279 27.6107 32.7901 27.9678 33.4257 28.6035C34.0614 29.2391 34.4185 30.1013 34.4185 31.0002ZM44.1029 32.5691L43.9963 32.724C42.6189 34.9316 40.7022 36.7522 38.4269 38.0144C36.1515 39.2766 33.5923 39.9389 30.9902 39.9389C28.3882 39.9389 25.829 39.2766 23.5536 38.0144C21.2782 36.7522 19.3616 34.9316 17.9841 32.724L17.8776 32.5691C17.5882 32.097 17.4351 31.554 17.4351 31.0002C17.4351 30.4465 17.5882 29.9035 17.8776 29.4314L17.9841 29.2764C19.3616 27.0689 21.2782 25.2483 23.5536 23.986C25.829 22.7238 28.3882 22.0615 30.9902 22.0615C33.5923 22.0615 36.1515 22.7238 38.4269 23.986C40.7022 25.2483 42.6189 27.0689 43.9963 29.2764L44.1029 29.4314C44.3981 29.8999 44.558 30.441 44.5648 30.9948C44.5717 31.5485 44.4252 32.0934 44.1416 32.5691H44.1029ZM36.3554 31.0002C36.3554 29.9468 36.043 28.9169 35.4577 28.041C34.8724 27.1651 34.0406 26.4824 33.0673 26.0793C32.094 25.6761 31.0231 25.5706 29.9898 25.7762C28.9566 25.9817 28.0076 26.489 27.2626 27.2339C26.5177 27.9788 26.0104 28.9279 25.8049 29.9611C25.5994 30.9943 25.7049 32.0653 26.108 33.0385C26.5112 34.0118 27.1939 34.8437 28.0698 35.429C28.9457 36.0142 29.9755 36.3266 31.029 36.3266C32.4408 36.3241 33.7941 35.7621 34.7925 34.7637C35.7908 33.7654 36.3528 32.4121 36.3554 31.0002Z" fill="white"/>
</svg>
