<svg width="62" height="62" viewBox="0 0 62 62" fill="none" xmlns="http://www.w3.org/2000/svg">
<circle cx="31" cy="31" r="31" fill="#3D4A5F"/>
<g clip-path="url(#clip0_251_4494)">
<path d="M28.7304 28.8403C30.6305 29.6171 32.2913 31.0004 33.3998 32.7301V23.3054H35.3871L31.0651 17L26.7432 23.3054H28.7304V28.8403Z" fill="white"/>
<path d="M32.0812 33.6226C30.5797 31.2618 27.9436 29.6926 24.9484 29.6926H22.9183V27.7017L17.5 32.0316L22.9182 36.3616V34.3706H24.9484C26.6671 34.3706 28.1208 35.5256 28.5792 37.1012C29.4405 35.6719 30.6466 34.4737 32.0812 33.6226Z" fill="white"/>
<path d="M44.6304 36.1561L39.2121 31.8262V33.8171H37.182C32.5218 33.8171 28.7305 37.6155 28.7305 42.2843V44.1304H33.3999V42.2842C33.3999 40.1949 35.0965 38.4951 37.182 38.4951H39.2121V40.4861L44.6304 36.1561Z" fill="white"/>
</g>
<defs>
<clipPath id="clip0_251_4494">
<rect width="27.1304" height="27.1304" fill="white" transform="translate(17.5 17)"/>
</clipPath>
</defs>
</svg>
