<svg width="62" height="62" viewBox="0 0 62 62" fill="none" xmlns="http://www.w3.org/2000/svg">
<circle cx="31" cy="31" r="31" fill="#F04A90"/>
<g clip-path="url(#clip0_251_4357)">
<path d="M42.5194 25.542L34.1014 33.96C33.1628 34.8962 31.8912 35.422 30.5654 35.422C29.2397 35.422 27.9681 34.8962 27.0294 33.96L18.6114 25.542C18.5974 25.7 18.5654 25.843 18.5654 26V38C18.567 39.3256 19.0943 40.5964 20.0316 41.5338C20.969 42.4711 22.2398 42.9984 23.5654 43H37.5654C38.891 42.9984 40.1619 42.4711 41.0992 41.5338C42.0365 40.5964 42.5638 39.3256 42.5654 38V26C42.5654 25.843 42.5334 25.7 42.5194 25.542Z" fill="white"/>
<path d="M32.6871 32.546L41.8211 23.411C41.3786 22.6773 40.7545 22.07 40.0091 21.6477C39.2636 21.2254 38.4219 21.0023 37.5651 21H23.5651C22.7083 21.0023 21.8666 21.2254 21.1211 21.6477C20.3756 22.07 19.7516 22.6773 19.3091 23.411L28.4431 32.546C29.0067 33.1073 29.7697 33.4225 30.5651 33.4225C31.3605 33.4225 32.1235 33.1073 32.6871 32.546Z" fill="white"/>
</g>
<defs>
<clipPath id="clip0_251_4357">
<rect width="24" height="24" fill="white" transform="translate(18.5654 20)"/>
</clipPath>
</defs>
</svg>
