<svg width="62" height="62" viewBox="0 0 62 62" fill="none" xmlns="http://www.w3.org/2000/svg">
<circle cx="31" cy="31" r="31" fill="#B26DE8"/>
<g clip-path="url(#clip0_251_4368)">
<path d="M31 19.042C28.354 19.0449 25.8171 20.0973 23.946 21.9682C22.0748 23.8392 21.0222 26.3759 21.019 29.022C21.019 31.592 23.009 35.614 26.934 40.976C27.4013 41.6161 28.0131 42.1369 28.7196 42.4959C29.4262 42.8549 30.2075 43.042 31 43.042C31.7926 43.042 32.5739 42.8549 33.2804 42.4959C33.987 42.1369 34.5988 41.6161 35.066 40.976C38.991 35.614 40.981 31.592 40.981 29.022C40.9779 26.3759 39.9253 23.8392 38.0541 21.9682C36.183 20.0973 33.6461 19.0449 31 19.042ZM31 33C30.2089 33 29.4356 32.7654 28.7778 32.3259C28.12 31.8863 27.6073 31.2616 27.3045 30.5307C27.0018 29.7998 26.9226 28.9956 27.0769 28.2196C27.2312 27.4437 27.6122 26.731 28.1716 26.1716C28.731 25.6122 29.4438 25.2312 30.2197 25.0769C30.9956 24.9225 31.7999 25.0017 32.5308 25.3045C33.2617 25.6072 33.8864 26.1199 34.3259 26.7777C34.7654 27.4355 35 28.2089 35 29C35 30.0609 34.5786 31.0783 33.8285 31.8284C33.0783 32.5786 32.0609 33 31 33Z" fill="white"/>
</g>
<defs>
<clipPath id="clip0_251_4368">
<rect width="24" height="24" fill="white" transform="translate(19 19)"/>
</clipPath>
</defs>
</svg>
