<svg width="62" height="62" viewBox="0 0 62 62" fill="none" xmlns="http://www.w3.org/2000/svg">
<circle cx="31" cy="31" r="31" fill="#00B3FF"/>
<g clip-path="url(#clip0_251_4348)">
<path d="M41.5657 29.9998C41.3005 29.9998 41.0462 29.8945 40.8586 29.7069C40.6711 29.5194 40.5657 29.265 40.5657 28.9998C40.5636 26.8787 39.7201 24.8451 38.2202 23.3453C36.7204 21.8455 34.6868 21.0019 32.5657 20.9998C32.3005 20.9998 32.0462 20.8944 31.8586 20.7069C31.6711 20.5194 31.5657 20.265 31.5657 19.9998C31.5657 19.7346 31.6711 19.4802 31.8586 19.2927C32.0462 19.1052 32.3005 18.9998 32.5657 18.9998C35.217 19.0027 37.7588 20.0572 39.6336 21.932C41.5083 23.8067 42.5628 26.3485 42.5657 28.9998C42.5657 29.265 42.4604 29.5194 42.2728 29.7069C42.0853 29.8945 41.8309 29.9998 41.5657 29.9998ZM38.5657 28.9998C38.5657 27.4085 37.9336 25.8824 36.8084 24.7572C35.6832 23.6319 34.157 22.9998 32.5657 22.9998C32.3005 22.9998 32.0462 23.1052 31.8586 23.2927C31.6711 23.4802 31.5657 23.7346 31.5657 23.9998C31.5657 24.265 31.6711 24.5194 31.8586 24.7069C32.0462 24.8945 32.3005 24.9998 32.5657 24.9998C33.6266 24.9998 34.644 25.4212 35.3942 26.1714C36.1443 26.9215 36.5657 27.9389 36.5657 28.9998C36.5657 29.265 36.6711 29.5194 36.8586 29.7069C37.0462 29.8945 37.3005 29.9998 37.5657 29.9998C37.8309 29.9998 38.0853 29.8945 38.2728 29.7069C38.4604 29.5194 38.5657 29.265 38.5657 28.9998ZM40.7487 41.1638L41.6587 40.1148C42.2379 39.5337 42.5632 38.7468 42.5632 37.9263C42.5632 37.1059 42.2379 36.3189 41.6587 35.7378C41.6277 35.7068 39.2217 33.8558 39.2217 33.8558C38.6443 33.3061 37.8773 33.0001 37.08 33.0012C36.2828 33.0023 35.5166 33.3105 34.9407 33.8618L33.0347 35.4678C31.4789 34.8239 30.0656 33.879 28.876 32.6873C27.6864 31.4957 26.7439 30.0807 26.1027 28.5238L27.7027 26.6238C28.2544 26.048 28.563 25.2817 28.5643 24.4842C28.5656 23.6867 28.2596 22.9194 27.7097 22.3418C27.7097 22.3418 25.8567 19.9388 25.8257 19.9078C25.2552 19.3336 24.4816 19.0068 23.6722 18.9982C22.8627 18.9896 22.0824 19.2998 21.4997 19.8618L20.3497 20.8618C13.5557 28.7438 28.1857 43.2608 36.3277 42.9998C37.1499 43.0046 37.9647 42.8446 38.724 42.5292C39.4834 42.2139 40.1718 41.7496 40.7487 41.1638Z" fill="white"/>
</g>
<defs>
<clipPath id="clip0_251_4348">
<rect width="24" height="24" fill="white" transform="translate(18.5654 19)"/>
</clipPath>
</defs>
</svg>
