<svg width="62" height="62" viewBox="0 0 62 62" fill="none" xmlns="http://www.w3.org/2000/svg">
<circle cx="31" cy="31" r="31" fill="#3D4A5F"/>
<g clip-path="url(#clip0_251_4246)">
<path d="M44.6304 42.532L41.4743 39.3758C42.0666 38.4817 42.4159 37.4134 42.4159 36.2637C42.4159 33.1471 39.8803 30.6116 36.7637 30.6116C33.6471 30.6116 31.1116 33.1471 31.1116 36.2637C31.1116 39.3803 33.6471 41.9159 36.7637 41.9159C37.9134 41.9159 38.9817 41.5666 39.8758 40.9743L43.032 44.1304L44.6304 42.532ZM41.2391 17H20.8913C19.0216 17 17.5 18.5216 17.5 20.3913V24.913H44.6304V20.3913C44.6304 18.5216 43.1089 17 41.2391 17ZM21.4565 22.6522C20.5205 22.6522 19.7609 21.8925 19.7609 20.9565C19.7609 20.0205 20.5205 19.2609 21.4565 19.2609C22.3925 19.2609 23.1522 20.0205 23.1522 20.9565C23.1522 21.8925 22.3925 22.6522 21.4565 22.6522ZM25.9783 22.6522C25.0423 22.6522 24.2826 21.8925 24.2826 20.9565C24.2826 20.0205 25.0423 19.2609 25.9783 19.2609C26.9143 19.2609 27.6739 20.0205 27.6739 20.9565C27.6739 21.8925 26.9143 22.6522 25.9783 22.6522ZM17.5 27.1739H44.6304V36.2174C44.6304 31.8471 41.0877 28.3043 36.7174 28.3043C32.3471 28.3043 28.8043 31.8471 28.8043 36.2174C28.8043 38.433 29.7177 40.4328 31.185 41.8696H17.5V27.1739Z" fill="white"/>
</g>
<defs>
<clipPath id="clip0_251_4246">
<rect width="27.1304" height="27.1304" fill="white" transform="translate(17.5 17)"/>
</clipPath>
</defs>
</svg>
