<svg width="62" height="62" viewBox="0 0 62 62" fill="none" xmlns="http://www.w3.org/2000/svg">
<circle cx="31" cy="31" r="31" fill="#3D4A5F"/>
<g clip-path="url(#clip0_251_4282)">
<path d="M25.5015 36.9867V38.8936L22.8577 40.3624C22.4936 40.068 22.0308 39.8912 21.5273 39.8912C20.3586 39.8912 19.4077 40.842 19.4077 42.0108C19.4077 43.1795 20.3586 44.1303 21.5273 44.1303C22.696 44.1303 23.6468 43.1795 23.6468 42.0108C23.6468 41.923 23.6409 41.8366 23.6304 41.7516L26.6823 40.0561C26.9347 39.9159 27.0911 39.6499 27.0911 39.3613V36.4204L26.7129 36.6474C26.3467 36.8671 25.9281 36.984 25.5015 36.9867Z" fill="white"/>
<path d="M31.8602 40.0466V38.7256H30.2705V40.0466C29.4946 40.3617 28.9458 41.1232 28.9458 42.0109C28.9458 43.1796 29.8966 44.1305 31.0654 44.1305C32.2341 44.1305 33.1849 43.1796 33.1849 42.0109C33.1849 41.1232 32.6362 40.3617 31.8602 40.0466Z" fill="white"/>
<path d="M40.6034 39.8912C40.0999 39.8912 39.637 40.068 39.273 40.3624L36.6292 38.8936V36.9867C36.2026 36.984 35.784 36.8671 35.4178 36.6474L35.0396 36.4204V39.3613C35.0396 39.6499 35.196 39.9159 35.4484 40.0561L38.5003 41.7516C38.4898 41.8366 38.4838 41.923 38.4838 42.0108C38.4838 43.1795 39.4347 44.1303 40.6034 44.1303C41.7721 44.1303 42.723 43.1795 42.723 42.0108C42.723 40.842 41.7721 39.8912 40.6034 39.8912Z" fill="white"/>
<path d="M37.2066 35.1648L39.1621 33.2092C39.42 32.9513 39.4693 32.551 39.2817 32.2382L38.5554 31.0276C38.8013 30.5624 39.0038 30.0724 39.16 29.5646L40.5311 29.2218C40.8849 29.1334 41.1332 28.8155 41.1332 28.4507V25.6851C41.1332 25.3204 40.8849 25.0025 40.5311 24.914L39.16 24.5712C39.0038 24.0635 38.8013 23.5735 38.5553 23.1082L39.2817 21.8976C39.4693 21.5848 39.42 21.1845 39.1621 20.9266L37.2066 18.971C36.9487 18.7131 36.5484 18.6639 36.2357 18.8515L35.025 19.5779C34.5597 19.3318 34.0698 19.1294 33.562 18.9732L33.2192 17.6021C33.1307 17.2482 32.8128 17 32.4481 17H29.6824C29.3177 17 28.9998 17.2482 28.9113 17.6021L28.5686 18.9732C28.0609 19.1293 27.5708 19.3319 27.1056 19.5779L25.8949 18.8515C25.5821 18.6639 25.1818 18.7131 24.924 18.971L22.9684 20.9266C22.7105 21.1845 22.6612 21.5848 22.8489 21.8976L23.5752 23.1082C23.3292 23.5735 23.1267 24.0635 22.9706 24.5712L21.5994 24.914C21.2455 25.0025 20.9973 25.3204 20.9973 25.6851V28.4507C20.9973 28.8155 21.2455 29.1334 21.5994 29.2218L22.9705 29.5646C23.1267 30.0724 23.3292 30.5624 23.5751 31.0276L22.8488 32.2382C22.6612 32.551 22.7105 32.9513 22.9684 33.2092L24.9239 35.1648C25.1818 35.4227 25.5821 35.472 25.8949 35.2844L27.1055 34.558C27.5708 34.804 28.0608 35.0066 28.5685 35.1627L28.9113 36.5339C28.9997 36.8877 29.3177 37.1359 29.6824 37.1359H32.448C32.8127 37.1359 33.1307 36.8877 33.2191 36.5339L33.5619 35.1627C34.0696 35.0066 34.5596 34.804 35.0249 34.558L36.2355 35.2844C36.5484 35.472 36.9487 35.4227 37.2066 35.1648ZM31.0652 30.7772C29.0167 30.7772 27.356 29.1165 27.356 27.0679C27.356 25.0194 29.0167 23.3587 31.0652 23.3587C33.1138 23.3587 34.7745 25.0194 34.7745 27.0679C34.7745 29.1165 33.1138 30.7772 31.0652 30.7772Z" fill="white"/>
</g>
<defs>
<clipPath id="clip0_251_4282">
<rect width="27.1304" height="27.1304" fill="white" transform="translate(17.5 17)"/>
</clipPath>
</defs>
</svg>
