<svg width="46" height="46" viewBox="0 0 46 46" fill="none" xmlns="http://www.w3.org/2000/svg">
<rect width="46" height="46" rx="23" fill="#00B3FF"/>
<g clip-path="url(#clip0_251_3945)">
<path d="M27.792 28.8359C28.378 29.4219 28.378 30.3719 27.792 30.9569C27.206 31.5429 26.256 31.5429 25.671 30.9569L19.855 25.1409L18.441 26.5549L23.834 31.9479C24.42 32.5339 24.42 33.4839 23.834 34.0689C23.248 34.6549 22.298 34.6549 21.713 34.0689L17.04 29.3959C14.083 26.5109 11.062 22.6669 11.062 19.0049C11.062 15.1449 13.979 12.0049 17.562 12.0049C19.335 12.0049 20.693 12.6669 21.727 13.4019L18.088 17.0099C17.426 17.6709 17.062 18.5509 17.062 19.4859C17.062 20.4209 17.426 21.2999 18.086 21.9599C18.747 22.6219 19.626 22.9859 20.562 22.9859C20.988 22.9859 21.399 22.9009 21.787 22.7569L27.792 28.8359ZM25.484 19.5299L23.392 21.6079L29.502 27.6259C30.088 28.2119 31.038 28.2119 31.623 27.6259C32.519 26.7299 31.752 25.7379 31.752 25.7379L25.483 19.5299H25.484ZM28.52 12.0629C26.886 12.0729 25.334 12.7829 24.138 13.8969L19.501 18.5029C18.915 19.0889 18.915 20.0389 19.501 20.6239C20.087 21.2099 21.037 21.2099 21.622 20.6239L25.528 16.7439L33.262 24.4219C34.453 22.4999 35.061 20.6999 35.061 19.0629C35.061 15.2029 32.103 12.0629 28.519 12.0629H28.52Z" fill="white"/>
</g>
<defs>
<clipPath id="clip0_251_3945">
<rect width="24" height="24" fill="white" transform="translate(11 11)"/>
</clipPath>
</defs>
</svg>
