<svg width="46" height="46" viewBox="0 0 46 46" fill="none" xmlns="http://www.w3.org/2000/svg">
<rect width="46" height="46" rx="23" fill="#00B3FF"/>
<g clip-path="url(#clip0_251_3951)">
<path d="M34.9998 21V34H10.9998V21H34.9998ZM10.9998 19V15C10.9998 13.35 12.3498 12 13.9998 12H31.9998C33.6498 12 34.9998 13.35 34.9998 15V19H10.9998ZM29.9998 15.5C29.9998 16.33 30.6698 17 31.4998 17C32.3298 17 32.9998 16.33 32.9998 15.5C32.9998 14.67 32.3298 14 31.4998 14C30.6698 14 29.9998 14.67 29.9998 15.5ZM25.9998 15.5C25.9998 16.33 26.6698 17 27.4998 17C28.3298 17 28.9998 16.33 28.9998 15.5C28.9998 14.67 28.3298 14 27.4998 14C26.6698 14 25.9998 14.67 25.9998 15.5ZM21.9998 15.5C21.9998 16.33 22.6698 17 23.4998 17C24.3298 17 24.9998 16.33 24.9998 15.5C24.9998 14.67 24.3298 14 23.4998 14C22.6698 14 21.9998 14.67 21.9998 15.5Z" fill="white"/>
</g>
<defs>
<clipPath id="clip0_251_3951">
<rect width="24" height="24" fill="white" transform="translate(11 11)"/>
</clipPath>
</defs>
</svg>
