<svg width="46" height="46" viewBox="0 0 46 46" fill="none" xmlns="http://www.w3.org/2000/svg">
<rect width="46" height="46" rx="23" fill="#00B3FF"/>
<g clip-path="url(#clip0_251_3964)">
<path d="M33.293 26.707L31.005 24.419L32.419 23.005L34.707 25.293L33.293 26.707ZM34.707 16.707L33.293 15.293L31.043 17.543L32.457 18.957L34.707 16.707ZM35 20H32V22H35V20ZM19.37 28H13.739L16.85 35H18.25C18.7082 34.9997 19.1591 34.8851 19.5618 34.6664C19.9645 34.4477 20.3062 34.1319 20.5559 33.7477C20.8056 33.3635 20.9554 32.923 20.9918 32.4663C21.0281 32.0095 20.9498 31.5509 20.764 31.132L19.37 28ZM29 11V31H27C26.9984 29.6744 26.4711 28.4036 25.5338 27.4662C24.5964 26.5289 23.3256 26.0016 22 26H14C13.2044 26 12.4413 25.6839 11.8787 25.1213C11.3161 24.5587 11 23.7956 11 23V19C11 18.2044 11.3161 17.4413 11.8787 16.8787C12.4413 16.3161 13.2044 16 14 16H22C23.3256 15.9984 24.5964 15.4711 25.5338 14.5338C26.4711 13.5964 26.9984 12.3256 27 11H29Z" fill="white"/>
</g>
<defs>
<clipPath id="clip0_251_3964">
<rect width="24" height="24" fill="white" transform="translate(11 11)"/>
</clipPath>
</defs>
</svg>
