<svg width="46" height="46" viewBox="0 0 46 46" fill="none" xmlns="http://www.w3.org/2000/svg">
<rect width="46" height="46" rx="23" fill="#00B3FF"/>
<g clip-path="url(#clip0_251_3970)">
<path d="M14.6381 19.9999C14.0201 19.9999 13.5401 19.4419 13.6491 18.8339C14.0081 16.8329 15.0051 14.9729 16.5041 13.5679C18.4391 11.7529 20.9661 10.8479 23.6301 11.0209C28.6511 11.3449 32.5731 15.7159 32.4991 20.9379C32.4591 23.7559 30.1101 26.0009 27.2911 26.0009H24.3591C23.9991 26.3469 23.5131 26.5619 22.9751 26.5619C21.8701 26.5619 20.9751 25.6669 20.9751 24.5619C20.9751 23.4569 21.8701 22.5619 22.9751 22.5619C23.8831 22.5619 24.6411 23.1709 24.8851 24.0009H27.2911C29.0271 24.0009 30.4801 22.6179 30.4991 20.8829C30.5451 16.7369 27.4541 13.2739 23.5011 13.0179C21.4021 12.8879 19.4001 13.5959 17.8711 15.0289C16.6621 16.1619 15.8831 17.6129 15.6101 19.2069C15.5301 19.6729 15.1101 20.0019 14.6381 20.0019V19.9999ZM23.0001 27.9999C19.3051 27.9999 16.1081 30.2919 15.0451 33.7019C14.9501 34.0059 15.0051 34.3369 15.1941 34.5929C15.3831 34.8489 15.6821 34.9999 16.0001 34.9999H30.0001C30.3181 34.9999 30.6171 34.8489 30.8061 34.5929C30.9951 34.3369 31.0501 34.0059 30.9551 33.7019C29.8921 30.2919 26.6951 27.9999 23.0001 27.9999ZM25.9341 21.9999H28.2881C28.4231 21.5229 28.5001 21.0209 28.5001 20.4999C28.5001 17.4619 26.0381 14.9999 23.0001 14.9999C19.9621 14.9999 17.5001 17.4619 17.5001 20.4999C17.5001 21.9909 18.0961 23.3409 19.0591 24.3319C19.1801 22.2659 20.8781 20.6229 22.9751 20.6229C24.1661 20.6229 25.2161 21.1639 25.9351 21.9999H25.9341Z" fill="white"/>
</g>
<defs>
<clipPath id="clip0_251_3970">
<rect width="24" height="24" fill="white" transform="translate(11 11)"/>
</clipPath>
</defs>
</svg>
