<svg width="46" height="46" viewBox="0 0 46 46" fill="none" xmlns="http://www.w3.org/2000/svg">
<rect width="46" height="46" rx="23" fill="#00B3FF"/>
<g clip-path="url(#clip0_251_3976)">
<path d="M35.0001 22.9829C34.9979 22.1689 34.7471 21.3749 34.2812 20.7074C33.8152 20.0399 33.1565 19.5306 32.3931 19.2479L32.3551 19.1569C31.363 16.7304 29.4638 14.7863 27.0611 13.7379L26.7321 13.5939C26.4488 12.8329 25.9396 12.1766 25.2727 11.7132C24.6058 11.2498 23.8131 11.0015 23.0011 11.0015C22.189 11.0015 21.3963 11.2498 20.7294 11.7132C20.0625 12.1766 19.5533 12.8329 19.2701 13.5939L18.8521 13.7819C16.4706 14.8636 14.5963 16.8196 13.6171 19.2449C12.8524 19.5235 12.1915 20.0298 11.7235 20.6956C11.2555 21.3614 11.0028 22.1547 10.9995 22.9685C10.9963 23.7823 11.2426 24.5776 11.7052 25.2471C12.1679 25.9166 12.8247 26.4282 13.5871 26.7129L13.7151 27.0129C14.7184 29.3418 16.5611 31.2081 18.8771 32.2409L19.2701 32.4169C19.5541 33.1769 20.0635 33.832 20.7301 34.2945C21.3967 34.757 22.1887 35.0049 23.0001 35.0049C23.8114 35.0049 24.6034 34.757 25.27 34.2945C25.9366 33.832 26.446 33.1769 26.7301 32.4169L27.0971 32.2539C29.5196 31.1707 31.4242 29.1854 32.4061 26.7199C33.1669 26.4343 33.8226 25.9237 34.286 25.2561C34.7494 24.5885 34.9985 23.7956 35.0001 22.9829ZM26.8931 30.1139C26.694 29.23 26.2 28.44 25.4924 27.874C24.7848 27.3081 23.9057 26.9997 22.9996 26.9997C22.0934 26.9997 21.2143 27.3081 20.5067 27.874C19.7991 28.44 19.3051 29.23 19.1061 30.1139C17.7406 29.3688 16.6189 28.246 15.8751 26.8799C16.7563 26.6808 17.5439 26.1886 18.109 25.4838C18.6742 24.779 18.9835 23.9033 18.9864 22.9999C18.9894 22.0965 18.6857 21.2188 18.125 20.5104C17.5644 19.802 16.78 19.3047 15.9001 19.0999C16.6466 17.7531 17.7578 16.644 19.1061 15.8999C19.306 16.7829 19.8001 17.5717 20.5075 18.1368C21.2148 18.7019 22.0932 19.0097 22.9986 19.0097C23.9039 19.0097 24.7823 18.7019 25.4897 18.1368C26.197 17.5717 26.6912 16.7829 26.8911 15.8999C28.2383 16.6432 29.3501 17.7494 30.1001 19.0929C29.2174 19.2945 28.4296 19.7902 27.8659 20.4986C27.3021 21.2071 26.996 22.0861 26.9977 22.9914C26.9995 23.8968 27.309 24.7746 27.8755 25.4809C28.4419 26.1871 29.2317 26.6798 30.1151 26.8779C29.3688 28.2397 28.2516 29.3618 26.8931 30.1139Z" fill="white"/>
</g>
<defs>
<clipPath id="clip0_251_3976">
<rect width="24" height="24" fill="white" transform="translate(11 11)"/>
</clipPath>
</defs>
</svg>
