<svg width="46" height="46" viewBox="0 0 46 46" fill="none" xmlns="http://www.w3.org/2000/svg">
<rect width="46" height="46" rx="23" fill="#00B3FF"/>
<path d="M23.5661 35H19.7191L21.7191 27H17.5861C17.1866 26.9998 16.7928 26.9062 16.436 26.7267C16.0792 26.5472 15.7693 26.2867 15.5312 25.966C15.293 25.6454 15.1332 25.2734 15.0644 24.88C14.9956 24.4865 15.0198 24.0824 15.1351 23.7L18.9761 11H28.4431L25.4431 19H29.4661C29.9238 19.0003 30.3729 19.1246 30.7656 19.3597C31.1583 19.5948 31.48 19.932 31.6964 20.3353C31.9128 20.7386 32.0159 21.193 31.9947 21.6503C31.9736 22.1075 31.8289 22.5504 31.5761 22.932L23.5661 35Z" fill="white"/>
</svg>
