<svg width="46" height="46" viewBox="0 0 46 46" fill="none" xmlns="http://www.w3.org/2000/svg">
<rect width="46" height="46" rx="23" fill="#00B3FF"/>
<path d="M34.25 26C33.836 26 33.5 25.664 33.5 25.25C33.5 22.355 31.145 20 28.25 20H21V23.25C21 23.91 20.206 24.244 19.732 23.792L14.232 18.542C14.084 18.401 14 18.205 14 18C14 17.795 14.084 17.599 14.232 17.458L19.732 12.208C20.208 11.754 21 12.092 21 12.75V16H27.25C31.523 16 35 19.477 35 23.75V25.25C35 25.664 34.664 26 34.25 26Z" fill="white"/>
<path d="M25 33.25V30H18.75C14.477 30 11 26.523 11 22.25V20.75C11 20.336 11.336 20 11.75 20C12.164 20 12.5 20.336 12.5 20.75C12.5 23.645 14.855 26 17.75 26H25V22.75C25 22.093 25.791 21.752 26.268 22.208L31.768 27.458C31.916 27.599 32 27.795 32 28C32 28.205 31.916 28.401 31.768 28.542L26.268 33.792C25.791 34.246 25 33.908 25 33.25Z" fill="white"/>
</svg>
