<svg width="46" height="46" viewBox="0 0 46 46" fill="none" xmlns="http://www.w3.org/2000/svg">
<rect width="46" height="46" rx="23" fill="#00B3FF"/>
<g clip-path="url(#clip0_251_3996)">
<path d="M35 15C35 12.794 33.206 11 31 11C28.794 11 27 12.794 27 15C27 15.067 27.017 15.13 27.02 15.196L18.386 17.894C17.679 16.761 16.431 16 15 16C12.794 16 11 17.794 11 20C11 22.206 12.794 24 15 24C15.802 24 16.547 23.757 17.174 23.349L23.484 29.133C23.185 29.693 23 30.322 23 31C23 33.206 24.794 35 27 35C29.206 35 31 33.206 31 31C31 29.487 30.146 28.184 28.904 27.504L31.031 18.997C33.222 18.98 35 17.195 35 15ZM27.614 17.106C27.979 17.69 28.49 18.164 29.096 18.496L26.97 27.004C26.18 27.01 25.446 27.249 24.827 27.651L18.517 21.867C18.816 21.307 19.001 20.678 19.001 20C19.001 19.933 18.984 19.87 18.981 19.804L27.614 17.106Z" fill="white"/>
</g>
<defs>
<clipPath id="clip0_251_3996">
<rect width="24" height="24" fill="white" transform="translate(11 11)"/>
</clipPath>
</defs>
</svg>
